<mxfile host="app.diagrams.net" modified="2024-03-10T07:20:50.461Z" agent="Mozilla/5.0 (Windows NT 10.0; Win64; x64) AppleWebKit/537.36 (KHTML, like Gecko) Chrome/122.0.0.0 Safari/537.36 Edg/122.0.0.0" version="24.0.2" etag="cy5G0Vm67I-WCUfvTmZZ" type="github">
  <diagram name="Page-1" id="nr6Q044fse7wWgaO1y5r">
    <mxGraphModel>
      <root>
        <mxCell id="0" />
        <mxCell id="1" parent="0" />
      </root>
    </mxGraphModel>
  </diagram>
</mxfile>
